<?xml version="1.0" standalone="no"?>
<!DOCTYPE svg PUBLIC "-//W3C//DTD SVG 20010904//EN"
 "http://www.w3.org/TR/2001/REC-SVG-20010904/DTD/svg10.dtd">
<svg version="1.0" xmlns="http://www.w3.org/2000/svg"
 width="900.000000pt" height="520.000000pt" viewBox="0 0 900.000000 520.000000"
 preserveAspectRatio="xMidYMid meet">

<g transform="translate(0.000000,520.000000) scale(0.100000,-0.100000)"
fill="#000000" stroke="none">
<path d="M7041 4734 c0 -11 3 -14 6 -6 3 7 2 16 -1 19 -3 4 -6 -2 -5 -13z"/>
<path d="M7052 4680 c0 -19 2 -27 5 -17 2 9 2 25 0 35 -3 9 -5 1 -5 -18z"/>
<path d="M7031 4555 c-1 -50 37 -356 45 -363 4 -4 4 13 1 38 -3 25 -13 110
-22 190 -17 150 -23 186 -24 135z"/>
<path d="M4236 4539 c-84 -29 -105 -49 -106 -102 0 -15 -7 -30 -15 -33 -7 -3
-22 -27 -31 -52 -10 -26 -45 -117 -79 -202 -34 -85 -65 -174 -68 -197 -8 -50
-183 -490 -202 -510 -18 -18 -23 -65 -30 -263 -3 -91 -10 -201 -16 -245 -13
-108 -22 -397 -13 -465 4 -30 9 -48 11 -40 2 9 13 21 24 28 18 12 20 11 15 -5
-2 -10 -7 -36 -11 -58 -3 -22 -11 -44 -17 -50 -8 -7 -9 -6 -6 5 3 8 1 24 -3
35 -7 17 -6 -63 2 -110 1 -5 -2 -128 -6 -271 l-8 -261 -69 40 c-38 21 -70 38
-72 36 -2 -2 0 -26 3 -53 6 -48 7 -49 69 -80 l64 -31 -6 -410 c-6 -437 -5
-446 42 -513 31 -42 82 -45 123 -6 l28 27 68 -24 c64 -22 68 -26 71 -56 2 -20
11 -37 23 -43 10 -6 19 -20 19 -31 0 -28 55 -49 126 -49 47 0 57 3 61 20 3 10
16 26 29 35 16 10 24 25 24 44 l0 28 253 7 c138 3 339 7 445 8 l194 3 27 -40
c17 -26 47 -50 86 -70 50 -26 70 -30 134 -30 65 0 85 5 138 31 57 29 62 30 66
13 3 -11 12 -19 20 -19 19 0 97 85 97 105 0 8 9 15 21 15 24 0 59 17 59 29 0
4 -24 12 -52 17 l-53 9 -3 126 c-2 119 -1 131 29 215 17 49 37 99 46 112 11
18 14 52 12 150 l-2 127 79 170 c58 124 87 173 104 183 15 7 53 11 95 10 l70
-3 73 -118 c128 -207 242 -427 242 -469 0 -27 7 -44 26 -63 25 -25 26 -31 21
-85 -10 -87 10 -142 102 -289 65 -103 82 -137 77 -156 -5 -20 -2 -25 16 -29
102 -21 132 -26 194 -31 56 -5 78 -3 103 10 33 17 121 127 121 151 0 8 -24 78
-54 157 -71 188 -116 344 -116 400 0 44 -2 47 -45 73 -37 21 -45 31 -45 54 0
39 -83 381 -109 451 -22 57 -22 57 -2 90 21 37 20 59 -10 257 -13 80 -14 82
-41 82 -33 0 -41 14 -42 80 -1 41 -3 47 -18 39 -15 -8 -15 -14 1 -89 10 -43
14 -83 10 -87 -5 -5 -2 -26 5 -48 22 -65 27 -95 17 -95 -5 0 -30 -15 -55 -34
l-45 -35 -15 46 c-9 26 -16 55 -16 65 0 23 -5 23 -42 -3 -16 -12 -33 -18 -37
-13 -5 5 -16 42 -27 82 -17 67 -17 74 -1 89 13 13 19 14 31 3 14 -10 16 -10
16 5 0 10 -3 15 -7 11 -4 -4 -15 23 -25 61 -21 85 -15 97 8 14 10 -33 23 -61
29 -61 21 0 46 -37 60 -90 17 -64 20 -68 44 -45 36 32 -1 110 -62 131 -15 5
-17 13 -12 48 5 32 3 45 -9 55 -17 14 -56 112 -56 140 0 10 7 24 16 32 29 24
1 111 -56 167 -16 17 -30 39 -30 49 0 10 -24 97 -54 193 -38 122 -51 179 -44
187 7 9 3 15 -17 23 -35 13 -35 13 -70 -15 -25 -21 -29 -30 -27 -67 3 -47 30
-261 37 -293 4 -19 0 -20 -88 -17 -83 3 -196 -12 -249 -33 -13 -5 -18 -1 -21
17 -27 144 -40 206 -53 238 -15 37 -17 38 -70 42 -30 1 -54 1 -54 -2 1 -3 7
-32 14 -65 11 -46 14 -53 16 -30 2 23 5 15 15 -30 21 -92 29 -219 17 -241 -9
-15 -12 0 -14 71 l-2 90 -3 -77 -4 -76 -43 -35 c-49 -40 -70 -93 -89 -220 -9
-63 -8 -86 3 -125 18 -62 18 -110 -2 -149 -9 -19 -12 -35 -7 -39 16 -9 10 -47
-13 -84 -12 -19 -24 -51 -27 -70 -4 -24 -12 -36 -26 -39 -11 -2 -34 -20 -51
-40 l-32 -36 -24 23 c-13 12 -29 22 -35 22 -6 0 -27 -24 -47 -53 l-37 -54 7
-185 c7 -183 0 -305 -16 -263 -4 11 -4 21 -1 23 11 4 0 246 -12 260 -15 18
-18 42 -5 42 6 0 8 -7 5 -15 -4 -8 -2 -17 3 -20 5 -3 9 25 9 65 l0 71 -20 -26
c-21 -26 -48 -32 -77 -16 -12 6 -28 2 -52 -14 l-35 -22 -5 -239 -6 -239 -2
240 -2 240 40 25 c22 14 40 28 40 32 0 17 -22 17 -52 -2 -43 -26 -48 -25 -48
9 0 20 8 35 27 49 26 19 25 46 -2 35 -11 -3 -15 2 -15 18 0 20 2 21 11 9 9
-13 10 -13 6 1 -13 41 -19 159 -9 159 7 0 9 -7 5 -17 -5 -12 -3 -14 7 -8 10 6
11 4 4 -6 -4 -8 -10 -22 -11 -32 -3 -15 2 -14 32 9 45 34 44 51 -1 60 -42 8
-59 0 -142 -66 -35 -27 -68 -50 -73 -50 -35 0 -79 93 -79 166 0 59 20 86 90
124 55 30 65 39 63 60 -13 126 -13 147 -1 170 8 14 20 26 28 27 8 1 31 4 51 8
l37 5 4 63 c3 38 14 82 29 112 28 56 19 54 165 40 105 -10 129 -4 145 37 28
75 36 107 28 120 -12 18 -11 28 1 28 6 0 10 -8 10 -17 0 -10 16 11 36 47 41
73 73 106 121 126 18 8 33 18 33 23 0 5 -33 24 -74 44 -73 35 -164 112 -200
170 -15 24 -22 28 -44 21 -37 -10 -83 -6 -100 9 -24 19 -52 89 -52 130 0 47
26 101 46 93 8 -3 14 -1 14 4 0 18 33 11 57 -12 l23 -22 -6 35 c-4 19 -13 48
-21 66 -11 23 -12 37 -4 51 21 39 116 114 190 149 42 20 85 43 95 52 17 14 17
12 -2 -14 -41 -56 -49 -65 -63 -65 -39 -1 -98 -40 -123 -82 -43 -73 -28 -111
16 -44 32 48 98 87 84 49 -6 -14 -2 -13 16 4 21 20 26 20 61 8 22 -7 49 -23
61 -34 12 -12 25 -18 29 -15 10 10 -20 60 -49 83 -15 12 -25 23 -23 25 12 11
91 46 139 61 105 34 230 112 230 145 0 17 -9 11 -42 -26 -35 -40 -101 -76
-202 -110 -74 -25 -146 -64 -185 -98 -48 -42 -6 12 72 93 53 55 85 81 100 81
37 0 193 56 292 104 103 51 234 152 288 223 20 26 41 53 47 60 5 7 6 14 2 17
-5 3 -31 -23 -58 -57 -138 -173 -366 -298 -624 -343 -188 -32 -566 -6 -571 39
-1 7 -3 32 -4 57 -1 25 -5 81 -10 125 -6 61 -3 100 10 165 9 47 21 92 26 102
7 13 2 17 -29 22 -35 6 -209 24 -452 46 -58 5 -139 14 -180 20 -98 12 -101 12
-194 -21z m128 -1223 c-4 -720 -11 -1176 -16 -1176 -10 0 -1 2320 8 2349 2 8
7 11 10 8 3 -3 3 -535 -2 -1181z m66 1024 l-7 -85 -1 81 c-1 44 1 84 5 87 9
10 9 10 3 -83z m145 30 c3 -5 1 -10 -4 -10 -6 0 -11 5 -11 10 0 6 2 10 4 10 3
0 8 -4 11 -10z m-25 -55 c0 -25 -4 -45 -10 -45 -5 0 -10 20 -10 45 0 25 5 45
10 45 6 0 10 -20 10 -45z m167 39 c-3 -3 -12 -4 -19 -1 -8 3 -5 6 6 6 11 1 17
-2 13 -5z m318 -4 c3 -6 -1 -7 -9 -4 -18 7 -21 14 -7 14 6 0 13 -4 16 -10z
m-356 -47 c-1 -41 -2 -44 -8 -18 -7 28 -4 65 5 65 2 0 3 -21 3 -47z m215 -16
c8 -12 7 -20 -2 -29 -16 -16 -47 13 -38 37 7 19 25 16 40 -8z m-757 -34 c-3
-10 -5 -4 -5 12 0 17 2 24 5 18 2 -7 2 -21 0 -30z m890 21 c9 -23 -13 -40 -32
-24 -8 7 -15 19 -15 26 0 19 39 18 47 -2z m28 -311 c-8 -15 -12 -30 -10 -33 2
-4 -2 -7 -10 -8 -51 -5 -68 -3 -82 10 -13 14 -10 16 30 22 25 4 51 14 57 21
20 25 30 17 15 -12z m156 -17 l76 -1 -38 -45 c-45 -54 -71 -119 -65 -168 3
-29 -3 -44 -28 -75 -27 -34 -31 -48 -34 -110 -4 -71 10 -133 27 -123 4 3 17
-4 27 -17 l19 -22 -24 20 c-17 14 -23 16 -19 5 2 -8 21 -23 42 -33 21 -10 36
-21 33 -23 -3 -3 -14 -1 -25 5 -12 6 -29 11 -40 11 -28 0 -99 55 -117 90 -25
49 -21 133 8 191 32 61 21 63 -27 4 -28 -33 -38 -57 -43 -94 -8 -70 -27 -53
-20 18 4 54 30 114 66 155 9 10 43 36 75 58 33 21 53 38 45 38 -9 0 -36 -13
-62 -30 -26 -16 -52 -30 -58 -30 -6 0 -8 -3 -6 -7 6 -10 -69 -15 -110 -8 -36
6 -45 25 -13 25 12 0 43 11 71 25 41 21 54 35 74 78 13 29 26 60 29 69 4 15 9
16 33 7 15 -6 62 -12 104 -13z m379 4 c0 -8 -132 -76 -180 -93 -60 -20 -169
-140 -170 -184 0 -36 -17 -27 -25 13 -14 78 23 185 83 234 34 28 37 28 148 28
63 -1 117 2 121 5 10 10 23 8 23 -3z m21 -167 c13 -16 12 -17 -3 -4 -10 7 -18
15 -18 17 0 8 8 3 21 -13z m-403 -168 c-3 -3 -9 2 -12 12 -6 14 -5 15 5 6 7
-7 10 -15 7 -18z m-196 -7 c-7 -7 -12 -8 -12 -2 0 6 3 14 7 17 3 4 9 5 12 2 2
-3 -1 -11 -7 -17z m-1105 -243 c-3 -12 -5 -6 -6 13 0 17 -5 32 -10 32 -4 0 -6
12 -3 28 5 25 6 25 14 -13 5 -22 7 -49 5 -60z m12 -47 c-1 -17 -2 -19 -6 -5
-7 27 -18 20 -38 -23 -10 -23 -22 -43 -27 -46 -9 -6 9 40 30 74 8 12 21 22 28
22 8 0 14 -9 13 -22z m8 -70 c-3 -7 -5 -2 -5 12 0 14 2 19 5 13 2 -7 2 -19 0
-25z m-102 -57 c-21 -43 -29 -39 -8 4 9 19 18 33 21 31 2 -2 -4 -18 -13 -35z
m1690 -11 c-3 -5 -12 -10 -18 -10 -7 0 -6 4 3 10 19 12 23 12 15 0z m70 -38
c-3 -3 -11 0 -18 7 -9 10 -8 11 6 5 10 -3 15 -9 12 -12z m-1735 -2 c0 -5 -2
-10 -4 -10 -3 0 -8 5 -11 10 -3 6 -1 10 4 10 6 0 11 -4 11 -10z m1700 6 c0 -2
-7 -7 -16 -10 -8 -3 -12 -2 -9 4 6 10 25 14 25 6z m665 -97 c8 -52 23 -134 35
-183 12 -48 19 -90 17 -93 -14 -14 -55 167 -72 322 -11 93 4 59 20 -46z m-758
67 c0 -8 -6 -12 -15 -9 -11 5 -11 7 0 14 7 5 13 9 14 9 0 0 1 -6 1 -14z m43 4
c-8 -5 -19 -10 -25 -10 -5 0 -3 5 5 10 8 5 20 10 25 10 6 0 3 -5 -5 -10z
m-1638 -32 c-7 -7 -12 -8 -12 -2 0 6 3 14 7 17 3 4 9 5 12 2 2 -3 -1 -11 -7
-17z m1643 -15 c-16 -9 -41 -17 -55 -18 -14 -2 -34 -6 -45 -9 -11 -4 -8 0 8 9
15 9 32 13 37 10 5 -3 22 1 37 9 16 8 33 15 38 15 6 0 -3 -7 -20 -16z m-1742
-8 c-3 -9 -8 -14 -10 -11 -3 3 -2 9 2 15 9 16 15 13 8 -4z m1532 -3 c-3 -3
-11 0 -18 7 -9 10 -8 11 6 5 10 -3 15 -9 12 -12z m-1428 -99 c-2 -16 -4 -3 -4
27 0 30 2 43 4 28 2 -16 2 -40 0 -55z m1263 57 c-10 -6 -11 -10 -2 -10 6 0 12
-5 12 -10 0 -6 -8 -5 -20 2 -14 9 -16 14 -7 20 7 4 17 8 22 8 6 0 3 -5 -5 -10z
m60 1 c0 -5 -9 -11 -20 -14 -22 -6 -28 8 -7 16 19 8 27 8 27 -2z m307 -15 c2
-1 -6 -12 -17 -23 -10 -12 -16 -23 -13 -26 3 -3 -39 -3 -93 0 -55 2 -111 4
-126 4 -16 -1 -28 4 -28 10 0 6 7 9 15 5 8 -3 15 -1 15 4 0 6 8 5 20 -2 22
-14 35 -6 27 15 -4 10 -20 14 -51 13 -25 -1 -46 2 -46 6 0 6 290 0 297 -6z
m-407 -6 c0 -5 -2 -10 -4 -10 -3 0 -8 5 -11 10 -3 6 -1 10 4 10 6 0 11 -4 11
-10z m-83 -22 c-3 -8 -6 -5 -6 6 -1 11 2 17 5 13 3 -3 4 -12 1 -19z m133 -10
c0 -5 -9 -3 -20 4 -11 7 -20 16 -20 20 0 5 9 3 20 -4 11 -7 20 -16 20 -20z
m34 18 c-10 -8 -21 -12 -24 -10 -5 6 21 24 34 24 6 0 1 -6 -10 -14z m116 4 c0
-5 -4 -10 -10 -10 -5 0 -10 5 -10 10 0 6 5 10 10 10 6 0 10 -4 10 -10z m-250
-10 c0 -5 -4 -10 -10 -10 -5 0 -10 5 -10 10 0 6 5 10 10 10 6 0 10 -4 10 -10z
m-1220 -148 c-10 -14 -11 -13 -6 8 3 14 7 52 8 85 l2 60 3 -68 c2 -38 -1 -75
-7 -85z m1370 138 c0 -5 -4 -10 -10 -10 -5 0 -10 5 -10 10 0 6 5 10 10 10 6 0
10 -4 10 -10z m-1463 -77 c-3 -10 -5 -2 -5 17 0 19 2 27 5 18 2 -10 2 -26 0
-35z m1698 8 c3 -5 2 -12 -3 -15 -5 -3 -9 1 -9 9 0 17 3 19 12 6z m-1561 -34
c-7 -18 -24 -23 -24 -8 0 22 13 42 22 33 5 -5 6 -16 2 -25z m1526 -27 c-8 -5
-19 -10 -25 -10 -5 0 -3 5 5 10 8 5 20 10 25 10 6 0 3 -5 -5 -10z m-1530 -19
c0 -6 -4 -13 -10 -16 -5 -3 -10 1 -10 9 0 9 5 16 10 16 6 0 10 -4 10 -9z m-35
-32 c4 -11 11 -17 16 -14 5 4 10 -6 11 -22 1 -15 3 -39 4 -53 1 -14 3 -38 4
-55 3 -30 3 -30 9 5 l6 35 19 -55 c10 -30 28 -93 40 -140 22 -83 22 -94 15
-560 -4 -261 -10 -483 -14 -492 -4 -10 -43 -31 -87 -48 -65 -25 -83 -29 -90
-18 -10 14 -2 393 8 410 4 7 2 8 -5 4 -9 -6 -11 7 -9 51 2 36 7 57 14 56 7 -1
15 12 18 30 8 39 29 87 38 87 3 0 4 -10 0 -22 -5 -21 -4 -22 12 -9 9 8 15 20
12 27 -3 7 -1 16 4 19 6 4 10 -19 10 -56 0 -90 7 -69 13 41 3 52 3 86 0 76 -3
-11 -12 -26 -20 -34 -13 -13 -14 -8 -10 42 4 49 3 54 -9 39 -7 -10 -14 -16
-14 -13 -4 14 -11 78 -12 103 -1 27 -1 27 -21 10 -11 -10 -35 -34 -53 -53
l-33 -35 21 47 c12 26 25 45 30 42 4 -3 8 7 7 23 0 26 -1 26 -9 6 -5 -12 -15
-25 -23 -30 -8 -4 -17 -15 -20 -23 -4 -12 -6 -12 -6 2 -1 9 13 32 29 50 27 29
34 49 33 101 0 9 4 17 8 17 4 0 5 8 2 19 -3 10 0 22 6 25 12 8 16 156 4 156
-5 -1 -24 -25 -43 -55 -22 -34 -38 -51 -44 -45 -6 6 2 21 21 41 18 16 38 44
45 60 14 31 23 36 31 17 3 -7 5 8 5 34 -1 26 -5 45 -10 42 -9 -6 -11 69 -2
114 7 34 29 34 39 1z m2537 -16 c24 -22 23 -65 -3 -89 -19 -17 -23 -17 -47 -3
-33 18 -41 62 -16 90 21 23 42 24 66 2z m-2642 -30 c-11 -17 -11 -17 -6 0 3
10 6 24 7 30 0 9 2 9 5 0 3 -7 0 -20 -6 -30z m1352 -115 c-6 -98 -22 -84 -22
19 0 76 2 85 13 68 10 -14 12 -41 9 -87z m-1322 32 c-6 -11 -8 -26 -4 -32 4
-7 3 -8 -4 -4 -8 5 -12 0 -12 -12 0 -11 -7 -26 -16 -33 -15 -12 -16 -11 -9 11
18 59 50 124 53 108 2 -9 -2 -26 -8 -38z m2044 7 c19 -26 19 -30 5 -55 -8 -15
-24 -28 -36 -30 -46 -7 -71 62 -36 100 22 24 41 20 67 -15z m-2081 -2 c-3 -9
-8 -14 -10 -11 -3 3 -2 9 2 15 9 16 15 13 8 -4z m1931 -45 c-8 -30 -14 -93
-14 -140 0 -186 64 -300 205 -366 73 -35 76 -44 6 -19 -100 35 -169 110 -207
225 -24 74 -25 224 -1 304 23 73 30 70 11 -4z m785 -22 c18 -58 17 -89 -2
-102 -15 -9 -22 -7 -37 12 -11 13 -24 40 -30 60 -8 31 -7 39 7 50 29 21 51 14
62 -20z m-519 -105 c11 -44 8 -41 140 -102 23 -10 22 -11 -10 -5 -53 8 -124
47 -137 75 -6 13 -14 47 -17 74 -7 55 3 37 24 -42z m-2144 -49 c-4 -14 -9 -24
-12 -21 -3 2 -2 17 2 31 3 15 9 25 11 22 3 -3 2 -17 -1 -32z m-10 -273 c-3 -5
1 -12 10 -15 22 -9 24 -8 24 9 0 8 5 15 11 15 12 0 3 -37 -14 -58 -8 -11 -12
-11 -19 0 -6 10 -10 10 -18 -2 -5 -8 -10 -11 -10 -6 0 5 -7 3 -15 -4 -25 -20
-19 20 7 47 22 23 34 30 24 14z m1929 -87 c37 -37 69 -57 111 -72 48 -16 53
-21 30 -21 -66 -2 -171 79 -210 160 -16 33 -16 33 1 9 9 -14 40 -48 68 -76z
m-1297 -110 l-3 -149 -5 157 c-3 86 -2 154 3 149 4 -4 6 -75 5 -157z m-566
102 c-3 -23 -17 -47 -47 -76 l-43 -42 -7 32 c-6 29 -3 36 41 76 27 24 51 43
54 44 4 0 4 -15 2 -34z m1301 11 c4 3 7 4 7 1 0 -3 -8 -12 -17 -19 -10 -7 -15
-9 -11 -5 4 5 2 16 -5 25 -10 14 -10 14 4 4 9 -7 19 -10 22 -6z m1298 -219
c10 -19 18 -20 78 -15 41 3 56 2 41 -3 -43 -14 -116 -11 -130 5 -7 8 -14 36
-16 63 l-4 47 10 -38 c6 -21 15 -47 21 -59z m-1043 73 c11 -7 10 -9 -3 -14 -9
-4 -14 -3 -10 2 3 5 -1 12 -7 14 -7 3 -8 6 -3 6 6 0 16 -3 23 -8z m37 -30 c3
-5 2 -12 -3 -15 -5 -3 -9 1 -9 9 0 17 3 19 12 6z m-35 -11 c-8 -5 -19 -10 -25
-10 -5 0 -3 5 5 10 8 5 20 10 25 10 6 0 3 -5 -5 -10z m-10 -54 c0 -3 -4 -8
-10 -11 -5 -3 -10 -1 -10 4 0 6 5 11 10 11 6 0 10 -2 10 -4z m1065 -391 c94
-163 98 -172 80 -150 -64 77 -264 449 -279 520 -4 17 27 -37 67 -120 41 -82
100 -195 132 -250z m-1035 357 c0 -10 -17 -90 -39 -178 -60 -246 -60 -236 -7
-399 4 -11 -7 7 -24 40 -42 85 -40 135 15 352 25 97 43 183 41 190 -3 7 -1 13
4 13 6 0 10 -8 10 -18z m-1013 -49 c-3 -10 -5 -2 -5 17 0 19 2 27 5 18 2 -10
2 -26 0 -35z m851 -25 c-15 -15 -16 -21 -6 -37 7 -11 15 -18 18 -16 3 2 5 -14
5 -35 0 -21 -2 -36 -5 -34 -3 3 -5 17 -5 30 -1 13 -5 23 -10 22 -6 -2 -9 -11
-9 -20 1 -10 -2 -15 -6 -13 -5 3 -7 13 -5 23 1 9 -3 24 -9 32 -10 13 -9 13 7
1 21 -17 23 2 1 19 -8 8 -20 23 -25 34 -8 17 -6 16 11 -4 14 -16 20 -19 16 -8
-3 10 -1 20 5 23 5 4 7 11 3 16 -3 6 3 5 13 -2 20 -12 20 -12 1 -31z m119 0
c-3 -8 -6 -5 -6 6 -1 11 2 17 5 13 3 -3 4 -12 1 -19z m-970 -20 c-3 -8 -6 -5
-6 6 -1 11 2 17 5 13 3 -3 4 -12 1 -19z m799 -12 c3 -20 -22 -41 -31 -26 -4 6
-1 9 6 8 16 -4 19 22 5 42 -8 12 -8 13 4 3 8 -7 15 -19 16 -27z m11 -41 c0 -8
-4 -12 -9 -9 -5 3 -6 10 -3 15 9 13 12 11 12 -6z m38 -54 c3 -5 2 -12 -3 -15
-5 -3 -9 1 -9 9 0 17 3 19 12 6z m552 -252 c2 -59 -1 -79 -10 -76 -17 5 -21
64 -6 114 6 24 12 43 13 43 1 0 2 -36 3 -81z m-497 12 c0 -4 -20 -17 -45 -29
-56 -27 -60 -20 -5 8 25 13 38 25 34 32 -4 7 -3 8 4 4 7 -4 12 -11 12 -15z
m-939 -316 c0 -175 -3 -320 -6 -323 -3 -3 -5 142 -5 323 0 181 2 326 5 323 3
-3 6 -148 6 -323z m939 273 c0 -30 -50 -78 -137 -131 l-94 -57 3 37 c3 36 7
40 108 100 110 66 120 70 120 51z m-100 -12 c0 -2 -7 -7 -16 -10 -8 -3 -12 -2
-9 4 6 10 25 14 25 6z m-105 -46 c3 -5 1 -10 -4 -10 -6 0 -11 5 -11 10 0 6 2
10 4 10 3 0 8 -4 11 -10z m199 -91 c-4 -6 -10 -47 -15 -90 -7 -72 -57 -274
-66 -266 -2 2 8 51 21 108 13 57 27 131 31 164 7 56 19 95 31 95 3 0 2 -5 -2
-11z m1362 -320 c47 -88 84 -162 82 -165 -5 -5 -165 284 -179 324 -7 19 -8 43
-3 60 8 25 9 24 12 -15 2 -30 29 -91 88 -204z m-969 -51 c-2 -18 -4 -6 -4 27
0 33 2 48 4 33 2 -15 2 -42 0 -60z m-500 -23 c-10 -33 -13 -35 -56 -35 -26 0
-41 4 -35 9 16 15 88 61 95 61 4 0 2 -16 -4 -35z"/>
<path d="M4860 4280 c0 -5 5 -10 10 -10 6 0 10 5 10 10 0 6 -4 10 -10 10 -5 0
-10 -4 -10 -10z"/>
<path d="M4990 4270 c0 -5 7 -10 16 -10 8 0 12 5 9 10 -3 6 -10 10 -16 10 -5
0 -9 -4 -9 -10z"/>
<path d="M5079 3753 c-13 -16 -12 -17 4 -4 16 13 21 21 13 21 -2 0 -10 -8 -17
-17z"/>
<path d="M5310 2984 c0 -11 12 -13 50 -11 27 1 52 -2 54 -8 2 -5 5 -2 5 8 1 9
5 17 11 17 5 0 7 -8 4 -17 -5 -15 -4 -15 4 -3 17 22 8 26 -62 27 -51 1 -66 -2
-66 -13z"/>
<path d="M3796 2739 c-8 -42 0 -50 9 -9 4 17 5 34 2 36 -2 3 -7 -10 -11 -27z"/>
<path d="M3853 2550 c0 -25 2 -35 4 -22 2 12 2 32 0 45 -2 12 -4 2 -4 -23z"/>
<path d="M3891 2539 c0 -30 5 -63 10 -74 6 -14 8 1 5 49 -6 83 -16 100 -15 25z"/>
<path d="M3807 2386 c-9 -13 -13 -26 -10 -30 3 -3 12 6 20 21 17 34 10 41 -10
9z"/>
<path d="M3920 2358 c-6 -33 -6 -98 0 -98 5 0 10 -12 13 -27 2 -16 3 2 3 39
-1 38 -5 68 -11 68 -5 0 -3 5 5 10 10 6 11 10 3 10 -7 0 -13 -1 -13 -2z"/>
<path d="M3833 2276 c-15 -15 -19 -27 -12 -37 7 -12 9 -12 9 0 0 8 7 19 16 26
9 6 15 17 13 23 -2 6 -13 2 -26 -12z"/>
<path d="M3882 2260 c0 -19 2 -27 5 -17 2 9 2 25 0 35 -3 9 -5 1 -5 -18z"/>
<path d="M3901 2233 c-1 -13 -5 -23 -11 -23 -5 0 -10 -9 -10 -21 0 -11 -5 -30
-11 -41 -7 -13 -7 -18 -1 -14 6 4 16 -2 21 -11 9 -15 10 -14 7 9 -3 15 0 44 5
63 6 20 8 42 5 48 -2 7 -5 2 -5 -10z"/>
<path d="M3920 2191 c0 -6 4 -13 10 -16 6 -3 7 1 4 9 -7 18 -14 21 -14 7z"/>
<path d="M3903 2095 c-3 -9 -3 -18 -1 -21 3 -2 0 -29 -7 -59 -7 -30 -10 -53
-5 -50 4 2 11 24 15 47 4 24 9 55 11 71 6 29 -3 37 -13 12z"/>
<path d="M3889 1943 c-1 -4 -1 -12 0 -17 1 -4 -3 -14 -8 -20 -8 -9 -6 -13 4
-13 8 0 13 2 10 5 -2 3 0 13 5 23 7 12 7 20 0 24 -5 3 -11 3 -11 -2z"/>
<path d="M3889 1773 c-13 -16 -12 -17 4 -4 16 13 21 21 13 21 -2 0 -10 -8 -17
-17z"/>
<path d="M3770 1446 c0 -9 5 -16 10 -16 6 0 10 4 10 9 0 6 -4 13 -10 16 -5 3
-10 -1 -10 -9z"/>
<path d="M6340 2749 c0 -5 5 -7 10 -4 6 3 10 8 10 11 0 2 -4 4 -10 4 -5 0 -10
-5 -10 -11z"/>
<path d="M3730 2145 c-7 -9 -8 -15 -2 -15 5 0 12 7 16 15 3 8 4 15 2 15 -2 0
-9 -7 -16 -15z"/>
<path d="M6539 4383 c-13 -16 -12 -17 4 -4 9 7 17 15 17 17 0 8 -8 3 -21 -13z"/>
<path d="M6418 4333 c7 -3 16 -2 19 1 4 3 -2 6 -13 5 -11 0 -14 -3 -6 -6z"/>
<path d="M6545 4310 c-8 -26 -52 -49 -107 -54 -24 -2 -45 -5 -48 -5 -15 -4 46
-41 66 -41 32 0 30 -12 -5 -33 -49 -29 -97 -20 -148 26 -28 25 -30 9 -3 -26
38 -48 110 -57 153 -19 9 8 17 12 17 8 0 -13 -35 -51 -50 -55 -52 -14 -73 -12
-100 8 -42 31 -46 26 -11 -14 31 -36 35 -44 32 -80 -6 -61 -41 -115 -41 -62 0
29 -42 115 -72 148 -12 14 -35 34 -50 43 l-28 18 0 -48 c0 -58 -31 -126 -70
-154 -35 -25 -48 -26 -28 -2 15 17 38 76 38 96 -1 6 -8 -5 -17 -24 -8 -19 -17
-29 -20 -23 -2 7 3 27 11 45 9 17 14 33 11 36 -2 3 -14 -17 -25 -44 -33 -76
-87 -124 -159 -139 l-34 -7 37 32 c20 18 41 42 47 54 6 11 -4 5 -23 -16 -18
-20 -53 -51 -78 -68 -42 -29 -43 -31 -15 -25 17 4 43 11 58 16 26 8 28 7 22
-14 -4 -12 -9 -30 -11 -39 -8 -27 33 -23 47 5 18 35 82 98 89 87 4 -6 21 -2
43 10 44 24 61 25 117 5 24 -8 46 -12 49 -9 9 9 -61 64 -82 64 -11 0 -17 5
-13 13 2 6 10 29 17 50 15 44 27 46 61 10 33 -36 52 -76 68 -141 10 -44 14
-51 27 -40 8 6 23 29 34 50 11 21 22 38 24 38 3 0 3 -30 0 -67 -6 -68 -6 -68
11 -38 22 41 42 55 79 55 34 0 67 -28 83 -70 l10 -25 10 25 c16 43 24 87 12
70 -5 -8 -10 -23 -10 -32 0 -10 -5 -18 -11 -18 -5 0 -7 4 -4 10 8 13 -5 80
-16 80 -5 0 -6 -7 -3 -15 4 -8 1 -15 -5 -15 -6 0 -11 6 -11 14 0 18 -39 65
-40 48 0 -7 5 -22 11 -34 15 -28 8 -30 -34 -9 -35 18 -37 18 -37 1 0 -9 -8
-24 -17 -33 -17 -15 -18 -13 -18 26 0 23 -4 55 -8 72 -8 28 -8 29 11 12 25
-23 31 -21 25 6 -4 20 -3 21 10 5 19 -24 30 -23 17 2 -13 24 -5 26 16 5 9 -8
22 -15 30 -15 12 0 12 4 -3 24 -10 13 -22 21 -27 18 -5 -3 -6 0 -1 7 5 9 13 7
29 -8 32 -30 38 -26 21 16 -8 20 -13 38 -11 41 3 2 19 0 35 -6 38 -13 39 -3 5
32 -28 27 -26 33 7 16 10 -6 19 -8 19 -6 0 3 -18 15 -41 26 l-41 21 41 38 c23
21 41 43 41 49 0 19 -8 14 -15 -8z m-615 -430 c-6 -11 -13 -20 -16 -20 -2 0 0
9 6 20 6 11 13 20 16 20 2 0 0 -9 -6 -20z"/>
<path d="M6556 4056 c3 -7 17 -19 32 -26 l27 -12 -24 26 c-27 28 -43 34 -35
12z"/>
<path d="M6661 3994 c0 -11 3 -14 6 -6 3 7 2 16 -1 19 -3 4 -6 -2 -5 -13z"/>
<path d="M6571 3974 c0 -11 3 -14 6 -6 3 7 2 16 -1 19 -3 4 -6 -2 -5 -13z"/>
<path d="M6621 3985 c1 -19 18 -51 18 -35 0 8 -4 22 -9 30 -5 8 -9 11 -9 5z"/>
<path d="M7088 3907 c-3 -33 -13 -65 -26 -84 -19 -27 -20 -32 -7 -49 8 -10 15
-37 16 -59 l2 -40 4 37 c2 20 -1 47 -7 58 -9 17 -8 27 5 47 16 24 34 143 23
143 -3 0 -8 -24 -10 -53z"/>
<path d="M6647 3937 c-11 -29 -9 -43 4 -30 6 6 9 19 7 29 -3 18 -4 18 -11 1z"/>
<path d="M7125 3939 c-4 -6 -5 -12 -2 -15 2 -3 7 2 10 11 7 17 1 20 -8 4z"/>
<path d="M7217 3875 c-40 -35 -77 -43 -94 -19 -14 19 -15 18 -11 -1 5 -31 52
-31 99 -1 21 15 39 31 39 36 0 13 -1 13 -33 -15z"/>
<path d="M6111 3876 c-96 -54 -44 -226 69 -226 83 0 120 116 59 190 l-20 25
15 -32 c28 -57 17 -95 -22 -74 -41 22 -55 108 -18 104 29 -2 4 16 -29 22 -17
3 -41 -1 -54 -9z m-11 -125 c0 -11 12 -29 27 -41 26 -21 43 -22 88 -5 16 5 15
2 -7 -18 -33 -30 -70 -26 -97 12 -21 31 -33 71 -20 71 5 0 9 -9 9 -19z"/>
<path d="M6416 3810 c6 -33 30 -90 38 -90 2 0 -4 21 -14 48 -28 75 -30 79 -24
42z"/>
<path d="M7231 3764 c-40 -28 -76 -31 -90 -6 -6 9 -11 12 -11 7 0 -19 23 -35
50 -35 28 0 90 34 90 50 0 12 2 13 -39 -16z"/>
<path d="M5515 3685 c-27 -27 -33 -80 -14 -118 47 -92 159 -66 159 37 0 91
-87 140 -145 81z m119 -17 c19 -26 21 -64 4 -74 -15 -9 -48 32 -48 60 0 41 21
47 44 14z m-83 -109 c12 -6 32 -9 45 -6 27 5 33 -7 8 -17 -46 -18 -95 18 -93
68 l1 31 9 -32 c5 -18 19 -38 30 -44z"/>
<path d="M7141 3685 c-2 -22 31 -55 54 -55 31 0 72 19 79 36 3 8 -8 5 -30 -8
-41 -24 -76 -18 -92 14 -6 13 -11 18 -11 13z"/>
<path d="M7180 3601 c0 -10 29 -36 34 -30 1 2 -6 12 -16 22 -10 9 -18 13 -18
8z"/>
<path d="M5801 3584 c0 -11 3 -14 6 -6 3 7 2 16 -1 19 -3 4 -6 -2 -5 -13z"/>
<path d="M5286 3527 c3 -10 9 -15 12 -12 3 3 0 11 -7 18 -10 9 -11 8 -5 -6z"/>
<path d="M5287 3488 c16 -21 21 -54 11 -72 -5 -10 -5 -16 0 -16 27 0 22 84 -5
95 -12 4 -13 2 -6 -7z"/>
<path d="M5792 3490 c2 -8 17 -19 31 -24 22 -8 31 -6 45 8 16 17 16 17 -10 5
-24 -10 -31 -10 -49 7 -16 14 -21 15 -17 4z"/>
<path d="M6100 3466 c0 -8 -8 -17 -18 -20 -10 -4 -24 -22 -31 -41 -18 -52 -78
-88 -152 -93 -41 -3 -66 0 -81 10 -14 9 -37 13 -59 11 l-36 -5 51 -48 c29 -27
64 -54 80 -59 65 -25 162 0 204 53 11 15 24 48 27 74 13 97 15 103 37 97 19
-7 19 -6 1 14 -21 25 -23 25 -23 7z"/>
<path d="M5970 3400 c-8 -5 -10 -10 -5 -10 6 0 17 5 25 10 8 5 11 10 5 10 -5
0 -17 -5 -25 -10z"/>
<path d="M6132 3155 c6 -14 13 -23 16 -21 7 7 -9 46 -18 46 -5 0 -4 -11 2 -25z"/>
<path d="M5820 3085 c0 -14 2 -25 4 -25 2 0 6 11 8 25 3 14 1 25 -3 25 -5 0
-9 -11 -9 -25z"/>
<path d="M6361 3075 c1 -19 18 -51 18 -35 0 8 -4 22 -9 30 -5 8 -9 11 -9 5z"/>
<path d="M6393 3049 c3 -9 1 -21 -5 -27 -6 -6 -7 -16 -2 -23 5 -9 10 -4 16 16
5 19 3 33 -4 40 -8 7 -9 5 -5 -6z"/>
<path d="M5641 2884 c0 -11 3 -14 6 -6 3 7 2 16 -1 19 -3 4 -6 -2 -5 -13z"/>
<path d="M5610 2881 c0 -6 4 -13 10 -16 6 -3 7 1 4 9 -7 18 -14 21 -14 7z"/>
<path d="M5638 2820 c2 -16 8 -30 13 -30 10 0 12 21 3 44 -10 27 -21 18 -16
-14z"/>
<path d="M6669 2630 c22 -10 23 -15 19 -71 -3 -35 -1 -54 4 -45 5 8 10 39 11
67 2 51 1 52 -28 55 -28 3 -29 3 -6 -6z"/>
<path d="M6485 2620 c-20 -9 -20 -9 0 -9 13 -1 27 -15 40 -43 11 -23 27 -44
34 -46 10 -3 7 5 -6 22 -12 15 -25 40 -28 56 -7 32 -9 33 -40 20z"/>
<path d="M6558 2434 c12 -8 22 -23 23 -32 0 -11 2 -13 6 -4 6 14 -24 52 -41
52 -6 0 0 -7 12 -16z"/>
<path d="M6590 2356 c0 -14 4 -27 8 -30 5 -3 6 8 4 25 -5 35 -12 38 -12 5z"/>
<path d="M2353 2187 c-54 -105 -99 -133 -164 -99 l-36 18 19 -48 c10 -27 18
-64 18 -83 l0 -35 56 0 c36 0 92 11 151 30 139 45 190 38 248 -32 25 -29 26
-30 10 -4 -12 19 -15 38 -10 62 l6 34 -64 0 c-130 0 -226 56 -213 124 11 53
17 96 13 96 -1 0 -17 -28 -34 -63z"/>
<path d="M3420 2227 c-14 -6 -26 -12 -28 -13 -6 -4 73 -153 81 -153 4 -1 7 11
7 26 0 40 -21 153 -29 152 -3 0 -17 -5 -31 -12z"/>
<path d="M1924 2200 c7 -36 45 -118 59 -127 5 -3 15 4 24 16 8 12 25 32 38 44
l23 22 -76 39 -75 38 7 -32z"/>
<path d="M6588 2204 c-36 -25 -36 -26 -24 -62 7 -20 17 -37 22 -39 5 -2 24 9
42 24 31 27 32 29 20 66 -6 20 -14 37 -17 36 -3 0 -23 -12 -43 -25z"/>
<path d="M3250 2155 c-19 -6 -37 -20 -38 -29 -3 -15 -1 -16 19 -6 13 7 46 10
80 8 58 -4 76 3 42 17 -47 19 -71 21 -103 10z"/>
<path d="M2965 2066 c-22 -6 -47 -15 -56 -21 -22 -14 -54 -65 -40 -65 6 0 11
4 11 9 0 12 98 61 122 61 18 0 25 15 11 23 -5 2 -26 -1 -48 -7z"/>
<path d="M3490 2050 c0 -4 11 -11 25 -14 13 -3 31 -19 39 -34 9 -15 15 -22 16
-16 0 18 -38 61 -60 67 -11 3 -20 2 -20 -3z"/>
<path d="M3274 2012 c-26 -17 -35 -51 -22 -80 11 -22 21 -28 55 -30 35 -3 44
1 58 22 14 22 15 28 1 60 -13 31 -19 36 -48 36 -18 0 -38 -4 -44 -8z m26 -31
c0 -10 -7 -24 -15 -31 -12 -10 -16 -9 -21 4 -3 9 -4 23 0 31 8 21 36 19 36 -4z"/>
<path d="M2952 1914 c-18 -12 -22 -24 -20 -52 4 -48 43 -71 89 -52 35 15 46
48 27 87 -16 34 -61 42 -96 17z m31 -16 c5 -16 -10 -48 -24 -48 -16 0 -22 29
-9 45 15 18 27 19 33 3z"/>
<path d="M3215 1570 c-13 -5 -14 -9 -5 -9 8 0 24 4 35 9 13 5 14 9 5 9 -8 0
-24 -4 -35 -9z"/>
<path d="M3115 1548 c-22 -5 -48 -10 -59 -11 -33 -3 29 -45 76 -52 46 -7 123
5 123 19 0 14 -49 46 -75 50 -14 2 -43 -1 -65 -6z"/>
<path d="M3348 1412 c-54 -31 -47 -7 -86 -287 l-19 -130 -18 60 c-9 33 -19
101 -22 150 -4 79 -2 93 16 115 l19 25 7 -28 c4 -15 12 -27 17 -27 5 0 8 3 6
8 -2 4 -12 23 -22 42 l-18 36 -66 -4 c-37 -2 -69 -6 -71 -8 -2 -2 5 -17 16
-33 l19 -31 -33 -127 c-17 -71 -32 -139 -33 -152 0 -13 16 -44 36 -68 l36 -44
-52 3 -53 3 -3 110 c-3 124 -37 334 -56 347 -24 14 -48 9 -48 -11 0 -25 -51
-164 -86 -233 -14 -29 -39 -66 -54 -83 -28 -30 -58 -125 -46 -144 9 -13 73
-31 113 -31 17 0 34 -3 36 -7 3 -5 -14 -89 -37 -187 -35 -155 -44 -180 -64
-189 -16 -8 -22 -18 -22 -44 0 -19 -6 -36 -13 -39 -18 -6 -52 -53 -61 -81 -6
-19 -2 -23 31 -32 76 -21 116 -15 171 29 55 44 62 56 62 104 0 28 64 395 74
421 5 15 136 6 136 -9 0 -8 -14 -89 -30 -181 -21 -114 -36 -172 -46 -180 -12
-8 -16 -31 -17 -85 l-2 -74 85 -13 c47 -6 103 -12 126 -13 42 0 134 27 134 39
0 13 -35 41 -51 41 -8 1 -32 13 -54 28 l-40 28 1 79 c0 67 33 290 49 333 2 6
18 12 35 12 43 0 90 26 90 50 0 11 -9 59 -21 107 -22 94 -22 219 1 296 l11 38
82 -7 c57 -4 79 -3 72 4 -13 14 -173 102 -183 101 -4 0 -28 -12 -54 -27z m-98
-462 l0 -40 -42 0 -42 0 39 40 c21 22 40 40 42 40 2 0 3 -18 3 -40z"/>
<path d="M2639 1401 c-12 -16 -35 -35 -50 -42 -29 -12 -129 -8 -161 6 -28 11
-21 -10 13 -44 24 -24 39 -31 70 -31 67 0 105 22 134 80 30 60 27 76 -6 31z"/>
<path d="M3060 1325 c-8 -9 -21 -13 -34 -10 -20 6 -20 5 -2 -6 15 -9 22 -7 39
10 12 11 19 21 15 21 -3 0 -11 -7 -18 -15z"/>
<path d="M5793 1123 c1 -51 6 -93 10 -93 16 0 16 27 3 105 l-14 80 1 -92z"/>
</g>
</svg>
